<svg version="1.2" xmlns="http://www.w3.org/2000/svg" viewBox="0 0 1920 1920" width="1920" height="1920">
	<title>logo</title>
	<style>
		tspan { white-space:pre } 
		.s0 { fill: #134b4b;stroke: #000000;stroke-miterlimit:10 } 
		.s1 { fill: #6fdc04 } 
		.s2 { fill: #e9f3f1 } 
	</style>
	<g id="Layer 1">
		<path id="&lt;Path&gt;" class="s0" d="m1919.5 1919.5h-1919v-1920h1919z"/>
		<g id="&lt;Group&gt;">
			<g id="&lt;Group&gt;">
				<path id="&lt;Path&gt;" class="s1" d="m1454.4 1188.6c0 88.7-20.1 173.4-59.8 251.7-34.1 67.2-81.9 128.7-142 182.8-63.9 57.5-125.9 92.3-166.7 111.4-48.5 22.7-95.6 36.3-125.9 36.3h-0.1c-30.4 0-77.4-13.6-125.9-36.3-40.8-19.1-102.8-53.9-166.7-111.4-60.2-54.1-108-115.6-142.1-182.8-39.6-78.3-59.7-163-59.7-251.7 0-32.7 6.3-64.7 18.9-95.2 11.9-29 29.8-57.5 53.2-84.7 2.1-1.3 4.2-2.8 6-4.6 48.5-47.1 112.4-73.1 180-73.1 42.1 0 83.9 10.4 120.8 30 35.8 19 67.1 46.6 90.5 79.8 1.8 2.5 4 4.8 6.5 6.7l0.5 0.4c5.2 3.8 11.2 5.8 17.2 5.9q0.4 0.1 0.8 0 0.4 0.1 0.9 0c6-0.1 12-2.1 17.2-5.9l0.4-0.4c2.6-1.9 4.8-4.2 6.6-6.7 23.4-33.2 54.6-60.8 90.4-79.8 36.9-19.6 78.7-30 120.9-30 67.6 0 131.5 26 179.9 73.1q2.8 2.7 6.1 4.6c23.4 27.2 41.3 55.7 53.2 84.7 12.6 30.5 18.9 62.5 18.9 95.2z"/>
				<g id="&lt;Group&gt;">
					<path id="&lt;Path&gt;" class="s2" d="m1514.4 1188.6c0 98.3-22.3 192.1-66.3 278.8-37.4 73.8-89.7 141.2-155.4 200.4-54.9 49.3-117.6 91.2-181.3 121-57.8 27.1-111.5 42-151.4 42h-0.1c-16.5-0.1-29.9-13.5-29.9-30 0-16.5 13.4-29.9 29.9-30h0.1c30.3 0 77.4-13.6 125.9-36.3 40.8-19.1 102.8-53.9 166.7-111.4 60.1-54.1 107.9-115.6 142-182.8 39.7-78.3 59.8-163 59.8-251.7 0-32.7-6.3-64.7-18.9-95.2-11.9-29-29.8-57.5-53.2-84.7q-0.8-1-1.6-1.9c-42.4-48.8-103.1-94.4-180.5-135.7q-12.1-6.5-24.8-12.8c-10.1-5.1-16.5-15.5-16.5-26.9v-373.8l-198.9 0.4h-0.2c-16.4-0.1-29.8-13.5-29.8-30 0-16.5 13.4-30 29.9-30h0.1l228.8-0.4h0.1c7.9 0 15.5 3.1 21.2 8.7 5.6 5.7 8.8 13.3 8.8 21.3v385.4c88.4 46.2 158.1 98.1 207.1 154.4 58.7 67.5 88.4 141.9 88.4 221.2z"/>
					<path id="&lt;Path&gt;" class="s2" d="m1418.7 1003.5c-9.8 10-24.8 11.8-36.4 5.2q-3.3-1.9-6.1-4.6c-48.4-47.1-112.3-73.1-179.9-73.1-42.2 0-84 10.4-120.9 30-35.8 19-67 46.6-90.4 79.8-1.8 2.5-4 4.8-6.6 6.7l-0.4 0.4c-4.2 3.1-9 5-13.9 5.6q0 0.1-0.1 0.1-0.7 0.1-1.5 0.1-0.8 0.1-1.7 0.1-0.5 0.1-0.9 0-0.4 0.1-0.8 0c-8.8-0.2-17.4-4.4-23.1-12-8.7-11.6-7.7-27.5 1.6-37.9q10.4-14.5 22.3-27.7c24.9-27.6 54.6-50.8 87.4-68.2 45.6-24.2 97.1-37 149-37q2 0 3.9 0.1c81.9 1 159.1 32.8 217.9 90 11.8 11.5 12.1 30.5 0.6 42.4z"/>
					<path id="&lt;Path&gt;" class="s2" d="m930 1800.8c0 16.5 13.4 29.9 29.9 30-39.9 0-93.7-14.9-151.4-42-63.7-29.8-126.4-71.7-181.3-121-65.7-59.2-118-126.6-155.5-200.4-43.9-86.7-66.2-180.5-66.2-278.8 0-79.3 29.7-153.7 88.4-221.2 49-56.3 118.6-108.2 207.1-154.4v-385.4c0-8 3.2-15.6 8.8-21.3 5.6-5.6 13.2-8.7 21.2-8.7l228.9 0.4c-16.5 0-29.9 13.5-29.9 30 0 16.5 13.4 29.9 29.8 30l-198.8-0.4v373.8c0 11.4-6.4 21.8-16.6 26.9q-12.6 6.3-24.8 12.8c-81.8 1-159 32.8-217.8 90-11.9 11.5-12.1 30.5-0.6 42.4 9.8 10 24.8 11.8 36.4 5.2-23.4 27.2-41.3 55.7-53.2 84.7-12.6 30.5-18.9 62.5-18.9 95.2 0 88.7 20.1 173.4 59.7 251.7 34.1 67.2 81.9 128.7 142.1 182.8 63.9 57.5 125.9 92.3 166.7 111.4 48.5 22.7 95.5 36.3 125.9 36.3-16.5 0.1-29.9 13.5-29.9 30z"/>
					<path id="&lt;Path&gt;" class="s2" d="m501.8 961.1c58.8-57.2 136-89 217.8-90-77.4 41.3-138 86.9-180.4 135.7q-0.8 0.9-1.6 1.9c-11.6 6.6-26.6 4.8-36.4-5.2-11.5-11.9-11.3-30.9 0.6-42.4z"/>
					<path id="&lt;Path&gt;" class="s2" d="m989.9 1800.8c0 16.5-13.4 29.9-29.9 30h-0.1c-16.5-0.1-29.9-13.5-29.9-30 0-16.5 13.4-29.9 29.9-30h0.1c16.5 0.1 29.9 13.5 29.9 30z"/>
					<path id="&lt;Path&gt;" class="s2" d="m930 428c0-16.5 13.4-30 29.9-30h0.1c16.5 0 29.9 13.5 29.9 30-0.1 16.5-13.4 29.9-29.9 30h-0.2c-16.4-0.1-29.8-13.5-29.8-30z"/>
					<path id="&lt;Path&gt;" class="s2" d="m983.9 1041.8c-4.4 6-10.7 9.8-17.4 11.3q-0.4 0.1-0.8 0.2-0.8 0.1-1.6 0.3-0.3 0-0.6 0-1.3 0.2-2.7 0.2-0.5 0.1-0.9 0-0.4 0.1-0.8 0-0.4 0-0.8 0-0.3 0-0.5 0-0.3-0.1-0.5-0.1-0.7 0-1.3-0.1-0.2-0.1-0.4-0.1-0.3 0-0.7-0.1-0.3 0-0.6-0.1-0.5-0.1-0.9-0.2-0.4-0.1-0.8-0.2c-3.8-0.9-7.4-2.6-10.7-5l-0.5-0.4c-2.5-1.9-4.7-4.2-6.5-6.7-23.4-33.2-54.7-60.8-90.5-79.8-36.9-19.6-78.7-30-120.8-30-67.6 0-131.5 26-180 73.1-1.8 1.8-3.9 3.3-6 4.6-11.6 6.6-26.6 4.8-36.4-5.2-11.5-11.9-11.3-30.9 0.6-42.4 58.8-57.2 136-89 217.8-90q2-0.1 4-0.1c51.9 0 103.4 12.8 149 37 32.7 17.4 62.4 40.6 87.3 68.2q12 13.2 22.4 27.7c9.3 10.4 10.3 26.3 1.6 37.9z"/>
				</g>
			</g>
		</g>
		<g id="&lt;Group&gt;">
			<path id="&lt;Compound Path&gt;" class="s2" d="m1105 73c-29.1 0-56.5 11.3-77.1 31.9-20.6 20.6-31.9 48-31.9 77.1 0 29.1 11.3 56.5 31.9 77.1 20.6 20.6 48 31.9 77.1 31.9 29.1 0 56.5-11.3 77.1-31.9 20.6-20.6 31.9-48 31.9-77.1 0-29.1-11.3-56.5-31.9-77.1-20.6-20.6-48-31.9-77.1-31.9zm0 40c38.1 0 69 30.9 69 69 0 38.1-30.9 69-69 69-38.1 0-69-30.9-69-69 0-38.1 30.9-69 69-69z"/>
		</g>
		<g id="&lt;Group&gt;">
			<path id="&lt;Compound Path&gt;" class="s2" d="m821 156c-52.4 0-95 42.6-95 95 0 52.4 42.6 95 95 95 52.4 0 95-42.6 95-95 0-52.4-42.6-95-95-95zm0 40c30.4 0 55 24.6 55 55 0 30.4-24.6 55-55 55-30.4 0-55-24.6-55-55 0-30.4 24.6-55 55-55z"/>
		</g>
	</g>
</svg>